<svg id="Layer_1" data-name="Layer 1" xmlns="http://www.w3.org/2000/svg" viewBox="0 0 804.73 202.18"><defs><style>.cls-1{fill:#a055fd;}</style></defs><path class="cls-1" d="M422.36,324.46c-3.74-3.34-7.59-6.56-11.18-10a10.92,10.92,0,0,1-.39-15.76c3.86-4.05,9.68-3.84,14.69,1,7.68,7.43,15.19,15,22.64,22.69,3.49,3.58,7.54,6.63,10.16,11.06,2.7,4.59,2.62,9.16-.94,12.85-10.75,11.1-21.07,22.65-32.74,32.82-5,4.37-10.27,4.07-14.34-.37s-3.75-9.65.67-14.38,8.64-9.13,13-13.7c-1.17-1.74-2.74-.94-4-.95q-55.9-.1-111.82-.08c-9.59,0-13.42,4-13.62,13.68-.35,17.09.84,34.21-.93,51.28a10.07,10.07,0,0,1-6.65,9c-3.91,1.54-7.83,1.33-11-1.43-3.38-3-3.95-7.64-4-11.68-.4-17.81-1.08-35.68-.11-53.44,1-18,12.63-30.92,32.92-30.92h116.6Z" transform="translate(-271.27 -295.81)"/><path class="cls-1" d="M329.5,442.44H436.83c2.16,0,4.32,0,6.48,0,10.44-.15,13.77-3.21,13.93-13.57.25-15.66.19-31.32.31-47,.05-7.66,3.82-12.07,10.62-12.56,5.36-.39,10,3.38,10.59,10.56,1.31,17,2.46,34,.87,51.09-.78,8.43-1.85,16.59-7.92,23.21-7.71,8.42-17.37,11.48-28.54,11.44-35.65-.14-71.3-.07-106.95-.08h-6.81c5.74,5.55,10.65,9.94,15.13,14.72,5.56,5.93,3.45,14.3-3.88,17.09a9.81,9.81,0,0,1-10.45-2.27c-11.19-10.86-22.41-21.76-32.63-33.52-6.61-7.6-6.1-11.21.7-18.5,10-10.65,20.33-20.92,30.82-31,5.38-5.18,11.8-5.46,15.4-1.55,4.33,4.71,3.85,11.4-1.57,16.71-4.74,4.64-9.79,9-14.71,13.44Z" transform="translate(-271.27 -295.81)"/><path d="M592.24,349.86a45.32,45.32,0,0,1,21.68-5.06,48.65,48.65,0,0,1,26.31,7.37,51.17,51.17,0,0,1,18.64,21.05q6.82,13.69,6.84,31.79t-6.84,31.9a51.71,51.71,0,0,1-18.64,21.26,48.14,48.14,0,0,1-26.31,7.47q-12.42,0-21.68-4.95a39.16,39.16,0,0,1-11.32-8.87,1.83,1.83,0,0,0-3.21,1.21v9.09a1.84,1.84,0,0,1-1.84,1.84H543.55a1.84,1.84,0,0,1-1.84-1.84V310a1.84,1.84,0,0,1,1.84-1.84h32.32a1.84,1.84,0,0,1,1.84,1.84v47.51a1.83,1.83,0,0,0,3.21,1.2A39,39,0,0,1,592.24,349.86Zm29.36,34a24.65,24.65,0,0,0-18.42-7.69A24.29,24.29,0,0,0,585,384q-7.47,7.79-7.47,21.26T585,426.49a25.21,25.21,0,0,0,36.53-.11q7.57-7.89,7.58-21.37T621.6,383.86Z" transform="translate(-271.27 -295.81)"/><path d="M684.33,373.22A51,51,0,0,1,703,352.17a48.63,48.63,0,0,1,26.31-7.37,45.21,45.21,0,0,1,21.79,5.06,38.92,38.92,0,0,1,11.2,8.85,1.83,1.83,0,0,0,3.22-1.2v-9.18a1.84,1.84,0,0,1,1.84-1.84h32.32a1.84,1.84,0,0,1,1.84,1.84V462.12a1.84,1.84,0,0,1-1.84,1.84H767.33a1.84,1.84,0,0,1-1.84-1.84v-9.3a1.84,1.84,0,0,0-3.21-1.22,40.25,40.25,0,0,1-11.42,9,45.2,45.2,0,0,1-21.79,5.05,47.73,47.73,0,0,1-26.1-7.47,51.57,51.57,0,0,1-18.64-21.26q-6.84-13.79-6.84-31.9T684.33,373.22ZM758,384a25.29,25.29,0,0,0-36.42-.1q-7.49,7.68-7.48,21.15t7.48,21.37a25.08,25.08,0,0,0,36.42.11q7.47-7.78,7.47-21.27T758,384Z" transform="translate(-271.27 -295.81)"/><path d="M879.38,350.8a40.43,40.43,0,0,1,19.18-5.54,1.83,1.83,0,0,1,1.87,1.84v34.39a1.84,1.84,0,0,1-1.84,1.84h-8.05q-13.49,0-20.21,5.79t-6.74,20.31v52.69a1.84,1.84,0,0,1-1.84,1.84H829.43a1.84,1.84,0,0,1-1.84-1.84V348.33a1.84,1.84,0,0,1,1.84-1.84h32.32a1.84,1.84,0,0,1,1.84,1.84v12.11a1.84,1.84,0,0,0,3.28,1.14A46.8,46.8,0,0,1,879.38,350.8Z" transform="translate(-271.27 -295.81)"/><path d="M983.16,435.27v26.85a1.83,1.83,0,0,1-1.83,1.84H964.85q-19.58,0-30.53-9.58t-10.94-31.26v-44.9a1.85,1.85,0,0,0-1.84-1.84H910.9a1.83,1.83,0,0,1-1.84-1.83V348.33a1.84,1.84,0,0,1,1.84-1.84h10.64a1.84,1.84,0,0,0,1.84-1.84V319.7a1.83,1.83,0,0,1,1.83-1.84h32.33a1.83,1.83,0,0,1,1.83,1.84v24.95a1.84,1.84,0,0,0,1.84,1.84h19.91a1.83,1.83,0,0,1,1.83,1.84v26.22a1.83,1.83,0,0,1-1.83,1.83H961.21a1.85,1.85,0,0,0-1.84,1.84v45.32c0,3.51.85,6,2.53,7.58s4.49,2.31,8.42,2.31h11A1.84,1.84,0,0,1,983.16,435.27Z" transform="translate(-271.27 -295.81)"/><path d="M1055,350.8a40.43,40.43,0,0,1,19.18-5.54,1.83,1.83,0,0,1,1.87,1.84v34.39a1.84,1.84,0,0,1-1.84,1.84h-8.05q-13.48,0-20.21,5.79t-6.74,20.31v52.69a1.84,1.84,0,0,1-1.84,1.84H1005a1.84,1.84,0,0,1-1.84-1.84V348.33a1.84,1.84,0,0,1,1.84-1.84h32.32a1.84,1.84,0,0,1,1.84,1.84v12.11a1.84,1.84,0,0,0,3.28,1.14A46.8,46.8,0,0,1,1055,350.8Z" transform="translate(-271.27 -295.81)"/></svg>